<svg width="7387" height="2228" viewBox="0 0 7387 2228" fill="none" xmlns="http://www.w3.org/2000/svg">
<path d="M3915.17 1719.6C4040.09 1719.6 4152.51 1694.48 4252.44 1644.24C4352.37 1593.28 4431.36 1523.38 4489.41 1434.55C4548.2 1344.99 4577.59 1241.96 4577.59 1125.47C4577.59 1008.97 4548.2 906.308 4489.41 817.479C4431.36 727.923 4352.37 658.024 4252.44 607.785C4152.51 556.818 4040.09 531.334 3915.17 531.334C3790.99 531.334 3678.57 556.818 3577.9 607.785C3477.97 658.024 3398.61 727.923 3339.83 817.479C3281.78 906.308 3252.75 1008.97 3252.75 1125.47C3252.75 1241.96 3281.78 1344.99 3339.83 1434.55C3398.61 1523.38 3477.97 1593.28 3577.9 1644.24C3678.57 1694.48 3790.99 1719.6 3915.17 1719.6ZM3915.17 1433.46C3857.86 1433.46 3805.69 1420.35 3758.66 1394.14C3712.37 1367.93 3675.63 1331.89 3648.44 1286.01C3621.25 1239.42 3607.66 1185.9 3607.66 1125.47C3607.66 1065.03 3621.25 1011.88 3648.44 966.013C3675.63 919.414 3712.37 883.009 3758.66 856.797C3805.69 830.585 3857.86 817.479 3915.17 817.479C3973.22 817.479 4025.39 830.585 4071.68 856.797C4118.71 883.009 4155.81 919.414 4183 966.013C4210.92 1011.88 4224.89 1065.03 4224.89 1125.47C4224.89 1185.9 4210.92 1239.42 4183 1286.01C4155.81 1331.89 4118.71 1367.93 4071.68 1394.14C4025.39 1420.35 3973.22 1433.46 3915.17 1433.46Z" fill="white"/>
<path d="M5337.05 1719.6C5414.2 1719.6 5486.21 1703.95 5553.08 1672.64C5620.68 1640.6 5680.2 1595.46 5731.63 1537.21V1684.65H6070V566.283H5731.63V702.803C5686.81 648.923 5629.86 607.057 5560.79 577.205C5491.72 546.625 5417.14 531.334 5337.05 531.334C5228.3 531.334 5131.67 557.546 5047.17 609.97C4963.41 661.665 4897.64 732.291 4849.88 821.848C4802.12 910.677 4778.24 1011.16 4778.24 1123.28C4778.24 1238.32 4803.22 1340.99 4853.19 1431.27C4903.15 1520.83 4970.02 1591.45 5053.78 1643.15C5138.29 1694.12 5232.71 1719.6 5337.05 1719.6ZM5437.35 1434.55C5349.91 1434.55 5277.53 1405.42 5220.22 1347.18C5162.9 1288.93 5134.24 1215.02 5134.24 1125.47C5134.24 1035.91 5162.9 962.008 5220.22 903.76C5278.26 845.511 5350.64 816.387 5437.35 816.387C5524.79 816.387 5596.8 845.511 5653.38 903.76C5710.69 961.28 5739.35 1035.18 5739.35 1125.47C5739.35 1215.75 5711.06 1290.02 5654.48 1348.27C5597.9 1405.79 5525.52 1434.55 5437.35 1434.55Z" fill="white"/>
<path d="M6468.03 1684.65H6806.41V1059.94C6806.41 1018.44 6818.53 979.847 6842.78 944.17C6867.76 907.764 6899.72 878.276 6938.67 855.705C6978.35 833.134 7020.23 821.848 7064.32 821.848C7128.24 821.848 7188.5 840.051 7245.08 876.456L7386.16 593.587C7356.77 575.385 7320.76 560.458 7278.14 548.809C7236.26 537.159 7195.48 531.334 7155.8 531.334C7085.99 531.334 7020.6 548.445 6959.61 582.666C6899.36 616.158 6848.29 664.213 6806.41 726.83V566.283H6468.03V1684.65Z" fill="white"/>
<path d="M642.577 1719.6C761.614 1719.6 869.628 1694.12 966.621 1643.15C1063.61 1592.18 1138.56 1521.56 1191.47 1431.27L947.884 1310.04C906.001 1359.55 862.281 1395.59 816.723 1418.17C771.901 1440.74 720.098 1452.02 661.314 1452.02C567.261 1452.02 491.577 1426.17 434.263 1374.48C376.949 1322.78 348.292 1254.34 348.292 1169.15H1213.51C1215.72 1150.22 1216.82 1137.48 1216.82 1130.93C1217.55 1123.65 1217.92 1115.27 1217.92 1105.81C1217.92 991.496 1192.94 891.382 1142.97 805.466C1093.74 719.549 1024.67 652.564 935.76 604.509C847.585 555.726 744.713 531.334 627.146 531.334C509.579 531.334 403.402 557.91 308.613 611.062C214.56 663.485 139.611 734.475 83.7665 824.032C27.9222 913.589 0 1014.07 0 1125.47C0 1238.32 27.9222 1339.53 83.7665 1429.09C140.346 1518.64 217.132 1589.63 314.124 1642.06C411.117 1693.75 520.601 1719.6 642.577 1719.6ZM360.416 983.487C367.764 918.686 394.952 867.719 441.978 830.585C489.005 793.452 549.258 774.885 622.738 774.885C692.543 774.885 750.592 793.452 796.884 830.585C843.911 867.719 873.302 918.686 885.059 983.487H360.416Z" fill="white"/>
<path d="M2619.08 2228C2758.23 2228 2889.81 2207.52 3013.8 2166.57C3137.8 2125.61 3243.88 2071.68 3332.06 2004.79L3179.13 1736.53C3044.11 1843.01 2876.03 1896.26 2674.88 1896.26C2517.82 1896.26 2378.67 1862.13 2257.42 1793.87C2137.56 1724.24 2043.87 1630.73 1976.37 1513.32C1908.86 1394.55 1875.1 1261.44 1875.1 1114C1875.1 970.654 1907.48 839.596 1972.23 720.823C2038.36 602.051 2131.36 507.853 2251.22 438.228C2371.09 367.238 2510.93 331.743 2670.75 331.743C2871.9 331.743 3042.05 384.985 3181.2 491.47L3332.06 223.21C3245.26 154.95 3139.18 101.024 3013.8 61.4338C2888.43 20.4779 2756.17 0 2617.01 0C2397.95 0 2200.94 49.8296 2025.96 149.489C1852.37 249.148 1714.6 382.937 1612.64 550.856C1512.07 718.776 1461.78 906.49 1461.78 1114C1461.78 1325.61 1513.45 1515.37 1616.78 1683.29C1721.48 1851.21 1861.32 1984.31 2036.3 2082.61C2211.27 2179.54 2405.53 2228 2619.08 2228Z" fill="white"/>
<path d="M2694.86 1719.6C2769.07 1719.6 2838.88 1709.04 2904.27 1687.93C2969.67 1667.54 3023.68 1641.69 3066.29 1610.39L2950.56 1384.31C2898.39 1424.35 2830.79 1444.38 2747.76 1444.38C2682.36 1444.38 2624.68 1430.18 2574.72 1401.78C2525.49 1373.39 2487.28 1335.16 2460.09 1287.11C2432.9 1238.32 2419.31 1184.44 2419.31 1125.47C2419.31 1071.59 2431.8 1020.26 2456.78 971.473C2482.5 922.69 2519.61 883.009 2568.1 852.428C2616.6 821.848 2675.75 806.558 2745.56 806.558C2828.59 806.558 2896.92 826.581 2950.56 866.626L3066.29 640.55C3025.15 608.513 2970.77 582.302 2903.17 561.915C2836.3 541.528 2766.5 531.334 2693.75 531.334C2603.37 531.334 2519.97 547.353 2443.56 579.389C2367.14 611.426 2300.64 655.112 2244.06 710.448C2187.48 765.784 2143.39 829.129 2111.8 900.483C2080.2 971.838 2064.4 1047.2 2064.4 1126.56C2064.4 1209.56 2080.94 1287.11 2114 1359.19C2147.07 1430.54 2192.62 1493.16 2250.67 1547.04C2308.72 1600.92 2375.59 1643.15 2451.27 1673.73C2527.69 1704.31 2608.88 1719.6 2694.86 1719.6Z" fill="white"/>
</svg>
