<svg width="42" height="42" viewBox="0 0 42 42" fill="none" xmlns="http://www.w3.org/2000/svg">
<path fill-rule="evenodd" clip-rule="evenodd" d="M18.145 41.9998H9.41642C9.2753 41.5551 9.14573 41.1056 9.02771 40.6515C7.8883 36.1572 7.8928 31.6911 9.04121 27.2532C10.2116 22.8384 12.5718 18.9354 16.1217 15.5443C19.603 12.2189 23.5536 10.0497 27.9735 9.03661C32.4153 8.04654 36.8555 8.20104 41.2939 9.50009C41.5307 9.57027 41.7661 9.64374 42.0001 9.7205V18.5659C41.3595 18.2974 40.706 18.0706 40.0397 17.8853C36.9615 17.0014 33.8991 16.9595 30.8526 17.7595C27.8281 18.5826 25.1134 20.1427 22.7086 22.4399C20.2351 24.8027 18.5399 27.4989 17.6232 30.5286C16.7294 33.5364 16.6536 36.598 17.3957 39.7135C17.5921 40.491 17.8418 41.2531 18.145 41.9998ZM30.8037 41.9998H22.933C22.7771 41.6798 22.6329 41.354 22.5004 41.0223C21.8073 39.2695 21.4502 37.4772 21.429 35.6453C21.4078 33.8135 21.7323 32.0499 22.4024 30.3548C23.0848 28.648 24.1222 27.1295 25.5147 25.7994C26.8461 24.5275 28.3621 23.5834 30.0627 22.9671C31.7633 22.3507 33.5287 22.0711 35.3587 22.1283C37.1887 22.1854 38.9813 22.5947 40.7366 23.3563C41.1673 23.5431 41.5884 23.7524 42.0001 23.9841V32.3185C41.9155 32.2237 41.8282 32.1292 41.7383 32.0351C40.6259 30.8705 39.4267 30.1287 38.1408 29.8097C36.855 29.4907 35.5979 29.5075 34.3696 29.8602C33.1531 30.2252 32.0929 30.8394 31.1889 31.7029C30.1995 32.648 29.5122 33.7382 29.1271 34.9736C28.7542 36.1972 28.7218 37.4473 29.03 38.7237C29.3215 39.8977 29.9127 40.9898 30.8037 41.9998Z" fill="#FFAAAA"/>
<rect x="1.16321" y="1.16321" width="39.6735" height="39.6736" rx="8.1425" stroke="#F87171" stroke-width="2.32643"/>
<path fill-rule="evenodd" clip-rule="evenodd" d="M23.855 2.54083e-05L32.5836 2.46452e-05C32.7247 0.44478 32.8543 0.894224 32.9723 1.34836C34.1117 5.84269 34.1072 10.3088 32.9588 14.7466C31.7884 19.1615 29.4282 23.0645 25.8783 26.4555C22.397 29.781 18.4464 31.9502 14.0265 32.9633C9.58464 33.9533 5.14451 33.7988 0.706096 32.4998C0.469318 32.4296 0.233902 32.3561 -0.000145308 32.2794L-0.000146081 23.434C0.640532 23.7025 1.29401 23.9293 1.96027 24.1145C5.03852 24.9985 8.10088 25.0404 11.1474 24.2403C14.1719 23.4173 16.8865 21.8571 19.2914 19.56C21.7649 17.1972 23.46 14.5009 24.3768 11.4713C25.2706 8.46351 25.3464 5.40188 24.6043 2.28639C24.4079 1.50882 24.1582 0.746703 23.855 2.54083e-05ZM11.1963 2.6515e-05L19.0669 2.58269e-05C19.2229 0.320048 19.3671 0.645911 19.4996 0.977614C20.1927 2.73033 20.5498 4.52264 20.571 6.35453C20.5922 8.18643 20.2677 9.94993 19.5976 11.6451C18.9152 13.3519 17.8778 14.8703 16.4853 16.2005C15.1539 17.4724 13.6378 18.4164 11.9372 19.0328C10.2366 19.6492 8.47134 19.9288 6.64133 19.8716C4.81132 19.8145 3.01866 19.4051 1.26336 18.6436C0.832713 18.4568 0.411543 18.2475 -0.000146555 18.0157L-0.000147283 9.68142C0.0844818 9.77622 0.171743 9.87067 0.261636 9.96478C1.37409 11.1294 2.57326 11.8712 3.85915 12.1902C5.14504 12.5092 6.40211 12.4924 7.63036 12.1396C8.84691 11.7747 9.90714 11.1605 10.811 10.297C11.8005 9.3519 12.4877 8.26166 12.8729 7.02632C13.2458 5.80264 13.2782 4.5526 12.97 3.27621C12.6785 2.10212 12.0873 1.01006 11.1963 2.6515e-05Z" fill="#F87171"/>
</svg>
