<svg width="647" height="195" viewBox="0 0 647 195" fill="none" xmlns="http://www.w3.org/2000/svg">
<path d="M342.954 150.504C353.896 150.504 363.744 148.305 372.498 143.908C381.252 139.447 388.171 133.33 393.256 125.555C398.405 117.717 400.98 108.7 400.98 98.5037C400.98 88.3076 398.405 79.3223 393.256 71.5478C388.171 63.7096 381.252 57.5919 372.498 53.1948C363.744 48.7341 353.896 46.5037 342.954 46.5037C332.077 46.5037 322.229 48.7341 313.411 53.1948C304.657 57.5919 297.706 63.7096 292.556 71.5478C287.472 79.3223 284.929 88.3076 284.929 98.5037C284.929 108.7 287.472 117.717 292.556 125.555C297.706 133.33 304.657 139.447 313.411 143.908C322.229 148.305 332.077 150.504 342.954 150.504ZM342.954 125.46C337.934 125.46 333.364 124.312 329.245 122.018C325.19 119.724 321.971 116.57 319.59 112.555C317.208 108.477 316.018 103.793 316.018 98.5037C316.018 93.2144 317.208 88.5625 319.59 84.5478C321.971 80.4694 325.19 77.2831 329.245 74.989C333.364 72.6948 337.934 71.5478 342.954 71.5478C348.039 71.5478 352.609 72.6948 356.664 74.989C360.783 77.2831 364.034 80.4694 366.415 84.5478C368.861 88.5625 370.084 93.2144 370.084 98.5037C370.084 103.793 368.861 108.477 366.415 112.555C364.034 116.57 360.783 119.724 356.664 122.018C352.609 124.312 348.039 125.46 342.954 125.46Z" fill="#F87171"/>
<path d="M467.506 150.504C474.264 150.504 480.572 149.134 486.429 146.393C492.35 143.589 497.564 139.638 502.07 134.54V147.445H531.71V49.5625H502.07V61.511C498.143 56.7953 493.155 53.1311 487.105 50.5184C481.054 47.8419 474.521 46.5037 467.506 46.5037C457.979 46.5037 449.515 48.7978 442.113 53.386C434.776 57.9105 429.015 64.0919 424.831 71.9301C420.648 79.7047 418.556 88.4988 418.556 98.3125C418.556 108.381 420.744 117.366 425.121 125.268C429.498 133.107 435.355 139.288 442.693 143.812C450.095 148.273 458.366 150.504 467.506 150.504ZM476.291 125.555C468.632 125.555 462.292 123.006 457.271 117.908C452.251 112.81 449.741 106.342 449.741 98.5037C449.741 90.6654 452.251 84.1973 457.271 79.0993C462.356 74.0012 468.696 71.4522 476.291 71.4522C483.951 71.4522 490.259 74.0012 495.215 79.0993C500.235 84.1336 502.746 90.6017 502.746 98.5037C502.746 106.406 500.267 112.906 495.311 118.004C490.355 123.038 484.015 125.555 476.291 125.555Z" fill="#F87171"/>
<path d="M566.576 147.445H596.216V92.7684C596.216 89.136 597.278 85.7586 599.402 82.636C601.59 79.4497 604.39 76.8689 607.802 74.8934C611.277 72.9179 614.946 71.9301 618.808 71.9301C624.408 71.9301 629.686 73.5233 634.642 76.7096L647 51.9522C644.425 50.3591 641.271 49.0527 637.538 48.0331C633.869 47.0135 630.297 46.5037 626.821 46.5037C620.707 46.5037 614.978 48.0012 609.636 50.9963C604.358 53.9277 599.885 58.1336 596.216 63.614V49.5625H566.576V147.445Z" fill="#F87171"/>
<path d="M56.2874 150.504C66.7145 150.504 76.1762 148.273 84.6724 143.812C93.1686 139.352 99.7339 133.17 104.368 125.268L83.0311 114.658C79.3623 118.991 75.5326 122.146 71.5419 124.121C67.6156 126.097 63.0779 127.085 57.9287 127.085C49.6899 127.085 43.0603 124.822 38.0398 120.298C33.0193 115.773 30.5091 109.783 30.5091 102.327H106.299C106.492 100.67 106.589 99.5551 106.589 98.9816C106.653 98.3444 106.685 97.6115 106.685 96.7831C106.685 86.7782 104.497 78.0159 100.12 70.4963C95.8076 62.9767 89.7573 57.114 81.9691 52.9081C74.2453 48.6385 65.2341 46.5037 54.9357 46.5037C44.6373 46.5037 35.3365 48.8297 27.0334 53.4816C18.7946 58.0698 12.2294 64.2831 7.33763 72.1213C2.44588 79.9596 0 88.7537 0 98.5037C0 108.381 2.44588 117.239 7.33763 125.077C12.2938 132.915 19.0199 139.129 27.5161 143.717C36.0123 148.241 45.6027 150.504 56.2874 150.504ZM31.5711 86.0772C32.2148 80.4056 34.5963 75.9448 38.7157 72.6948C42.835 69.4448 48.113 67.8198 54.5495 67.8198C60.6642 67.8198 65.7491 69.4448 69.8041 72.6948C73.9234 75.9448 76.498 80.4056 77.5279 86.0772H31.5711Z" fill="#F87171"/>
<path d="M229.422 195C241.611 195 253.136 193.208 263.998 189.623C274.859 186.039 284.152 181.319 291.876 175.464L278.48 151.985C266.653 161.305 251.929 165.965 234.309 165.965C220.551 165.965 208.362 162.978 197.742 157.004C187.242 150.91 179.036 142.725 173.122 132.449C167.209 122.054 164.252 110.404 164.252 97.5C164.252 84.954 167.088 73.4834 172.76 63.0882C178.553 52.693 186.699 44.4485 197.199 38.3548C207.698 32.1415 219.948 29.0349 233.947 29.0349C251.567 29.0349 266.472 33.6948 278.661 43.0147L291.876 19.5358C284.273 13.5616 274.98 8.8419 263.998 5.37683C253.016 1.79228 241.43 0 229.241 0C210.052 0 192.794 4.36121 177.467 13.0836C162.261 21.8061 150.192 33.5156 141.261 48.2123C132.452 62.909 128.047 79.3382 128.047 97.5C128.047 116.02 132.572 132.629 141.624 147.325C150.796 162.022 163.045 173.672 178.372 182.275C193.699 190.758 210.716 195 229.422 195Z" fill="#F87171"/>
<path d="M236.059 150.504C242.56 150.504 248.675 149.58 254.403 147.732C260.132 145.947 264.863 143.685 268.596 140.945L258.458 121.158C253.889 124.663 247.967 126.415 240.694 126.415C234.965 126.415 229.912 125.173 225.536 122.687C221.223 120.202 217.876 116.857 215.495 112.651C213.113 108.381 211.922 103.665 211.922 98.5037C211.922 93.788 213.017 89.2953 215.205 85.0257C217.458 80.7561 220.708 77.2831 224.956 74.6066C229.204 71.9301 234.386 70.5919 240.501 70.5919C247.774 70.5919 253.76 72.3444 258.458 75.8493L268.596 56.0625C264.992 53.2586 260.228 50.9645 254.307 49.1801C248.45 47.3958 242.335 46.5037 235.963 46.5037C228.046 46.5037 220.74 47.9056 214.046 50.7095C207.352 53.5135 201.527 57.337 196.571 62.1801C191.615 67.0233 187.753 72.5674 184.986 78.8125C182.218 85.0576 180.834 91.6532 180.834 98.5993C180.834 105.864 182.282 112.651 185.179 118.96C188.075 125.205 192.066 130.685 197.151 135.401C202.235 140.116 208.093 143.812 214.722 146.489C221.416 149.165 228.529 150.504 236.059 150.504Z" fill="#F87171"/>
</svg>
