<svg width="25" height="26" viewBox="0 0 25 26" fill="none" xmlns="http://www.w3.org/2000/svg">
<path d="M22.9341 8.71073C20.6459 3.38598 16.9651 -0.664651 15.103 0.0908691C11.9408 1.378 16.9867 7.55073 1.45597 13.8621C0.113945 14.4096 -0.225533 16.5895 0.336412 17.8954C0.896913 19.1985 2.73154 20.4971 4.07356 19.9525C4.30614 19.8572 5.15845 19.5827 5.15845 19.5827C6.11621 20.8698 7.11876 20.1071 7.47557 20.9233L9.14841 24.7659C9.46477 25.4911 10.1813 26.1628 10.7013 25.9649L13.6627 24.8396C14.3388 24.5824 14.4992 23.9786 14.2926 23.5048C14.0701 22.9919 13.1571 22.8417 12.8957 22.2436C12.6356 21.6485 11.7848 19.733 11.5406 19.1291C11.2084 18.3086 11.9148 17.6397 12.9419 17.5343C20.0117 16.7947 21.3335 21.1631 23.7402 20.1837C25.5994 19.4253 25.2209 14.0312 22.9341 8.71073ZM22.1382 17.3436C21.7236 17.5097 18.9413 15.3183 17.1644 11.1795C15.3861 7.04368 15.6101 3.26319 16.0232 3.09417C16.4364 2.92804 19.1507 5.57453 20.9276 9.71039C22.7059 13.8462 22.5513 17.1746 22.1382 17.3436Z" />
</svg>
