<svg width="15" height="16" viewBox="0 0 15 16" fill="none" xmlns="http://www.w3.org/2000/svg">
<path d="M13.5486 12.9829C12.0599 12.9661 10.6167 12.468 9.4345 11.5632C8.2523 10.6584 7.39458 9.39539 6.9895 7.96284C6.58443 6.53029 6.65374 5.00512 7.18708 3.61522C7.72043 2.22531 8.68917 1.04528 9.94857 0.251429C9.31221 0.0860036 8.65751 0.00152696 8 0C5.87827 0 3.84344 0.842855 2.34315 2.34315C0.842855 3.84344 0 5.87827 0 8C0 10.1217 0.842855 12.1566 2.34315 13.6569C3.84344 15.1571 5.87827 16 8 16C9.20196 15.9989 10.3878 15.7235 11.4672 15.1947C12.5466 14.6659 13.491 13.8977 14.2286 12.9486C14.0026 12.9715 13.7757 12.983 13.5486 12.9829Z" fill="#F87171"/>
</svg>
